<svg id="visual" viewBox="0 0 1100 300" width="1100" height="300" xmlns="http://www.w3.org/2000/svg" xmlns:xlink="http://www.w3.org/1999/xlink" version="1.1"><rect x="0" y="0" width="1100" height="300" fill="#d4fdfa"></rect><path d="M744 300L715 267L752 233L741 200L760 167L759 133L734 100L717 67L721 33L702 0L1100 0L1100 33L1100 67L1100 100L1100 133L1100 167L1100 200L1100 233L1100 267L1100 300Z" fill="#bbfff9"></path><path d="M795 300L783 267L775 233L809 200L832 167L780 133L784 100L814 67L830 33L778 0L1100 0L1100 33L1100 67L1100 100L1100 133L1100 167L1100 200L1100 233L1100 267L1100 300Z" fill="#9df6ed"></path><path d="M882 300L848 267L868 233L849 200L874 167L864 133L863 100L865 67L847 33L870 0L1100 0L1100 33L1100 67L1100 100L1100 133L1100 167L1100 200L1100 233L1100 267L1100 300Z" fill="#7cede1"></path><path d="M946 300L946 267L951 233L942 200L928 167L936 133L946 100L948 67L942 33L947 0L1100 0L1100 33L1100 67L1100 100L1100 133L1100 167L1100 200L1100 233L1100 267L1100 300Z" fill="#55e4d5"></path><path d="M1001 300L1021 267L993 233L1011 200L998 167L1022 133L1003 100L993 67L1007 33L1006 0L1100 0L1100 33L1100 67L1100 100L1100 133L1100 167L1100 200L1100 233L1100 267L1100 300Z" fill="#00dac8"></path></svg>